<?xml version="1.0" standalone="no"?><!DOCTYPE svg PUBLIC "-//W3C//DTD SVG 1.1//EN" "http://www.w3.org/Graphics/SVG/1.1/DTD/svg11.dtd"><svg t="1676402137851" class="icon" viewBox="0 0 1024 1024" version="1.1" xmlns="http://www.w3.org/2000/svg" p-id="10646" xmlns:xlink="http://www.w3.org/1999/xlink" width="200" height="200"><path d="M892 176H132a4 4 0 0 0-4 4v64a4 4 0 0 0 4 4h760a4 4 0 0 0 4-4v-64a4 4 0 0 0-4-4z m0 200H132a4 4 0 0 0-4 4v64a4 4 0 0 0 4 4h760a4 4 0 0 0 4-4v-64a4 4 0 0 0-4-4z m0 200H132a4 4 0 0 0-4 4v64a4 4 0 0 0 4 4h760a4 4 0 0 0 4-4v-64a4 4 0 0 0-4-4z m0 200H132a4 4 0 0 0-4 4v64a4 4 0 0 0 4 4h760a4 4 0 0 0 4-4v-64a4 4 0 0 0-4-4z" p-id="10647"></path></svg>