<?xml version="1.0" standalone="no"?><!DOCTYPE svg PUBLIC "-//W3C//DTD SVG 1.1//EN" "http://www.w3.org/Graphics/SVG/1.1/DTD/svg11.dtd"><svg t="1676403429523" class="icon" viewBox="0 0 1024 1024" version="1.1" xmlns="http://www.w3.org/2000/svg" p-id="27868" xmlns:xlink="http://www.w3.org/1999/xlink" width="200" height="200"><path d="M149.333333 661.333333a64 64 0 1 1 0 128 64 64 0 0 1 0-128z m170.666667 21.333334h576.128a42.666667 42.666667 0 0 1 4.992 85.034666l-4.992 0.298667H320a42.666667 42.666667 0 0 1-4.949333-85.034667L320 682.666667h576.128H320z m-170.666667-234.666667a64 64 0 1 1 0 128 64 64 0 0 1 0-128z m170.666667 21.333333h576.128a42.666667 42.666667 0 0 1 4.992 85.034667l-4.992 0.298667H320a42.666667 42.666667 0 0 1-4.949333-85.034667L320 469.333333h576.128H320z m-170.666667-234.368a64 64 0 1 1 0 127.957334 64 64 0 0 1 0-127.957334zM320 256h576.128a42.666667 42.666667 0 0 1 4.992 85.034667L896.128 341.333333H320a42.666667 42.666667 0 0 1-4.949333-85.034666L320 256h576.128H320z" fill="#212121" p-id="27869"></path></svg>