<?xml version="1.0" standalone="no"?><!DOCTYPE svg PUBLIC "-//W3C//DTD SVG 1.1//EN" "http://www.w3.org/Graphics/SVG/1.1/DTD/svg11.dtd"><svg t="1676403331214" class="icon" viewBox="0 0 1024 1024" version="1.1" xmlns="http://www.w3.org/2000/svg" p-id="27312" xmlns:xlink="http://www.w3.org/1999/xlink" width="200" height="200"><path d="M921.6 525.824H237.056V457.3696H921.6v68.4544z m0 273.8176H237.056v-68.4544H921.6v68.4544z m0-547.6352H237.056V183.552H921.6v68.4544zM112.1792 197.2224L103.936 177.152c10.2912-5.0176 18.432-7.936 31.5392-23.6032h32.1024v101.9904h16.7424v23.9616H112.1792v-23.9616h18.0224V188.7232l-18.0224 8.4992z m12.544 271.36l-19.4048-20.48c12.5952-14.4896 28.672-22.2208 46.6432-22.2208 23.8592 0 42.7008 15.104 42.7008 39.2704 0 20.6336-9.728 27.8016-28.672 40.192-8.6528 5.5808-22.8352 16.896-26.9312 24.064h31.5392v-14.336h30.1568v38.144H103.8848v-26.0096c9.8816-16.128 14.7456-21.2992 26.2144-30.464 12.6976-11.264 31.744-18.8416 31.744-29.952 0-9.1648-6.8096-11.8272-15.0528-11.8272-9.728 0-16.6912 7.8848-22.0672 13.6192z m-1.024 266.3424l-17.408-20.9408c6.5024-6.9632 22.016-16.9984 38.3488-16.9984 29.184 0 45.6192 15.0528 45.6192 37.888 0 12.2368-8.6016 19.2-13.2608 22.784 5.7344 4.096 16.64 13.2096 16.64 29.3376 0 26.4704-25.3952 39.3728-49.5616 39.3728-16.9984 0-34.7136-9.8304-41.6768-20.224l18.2272-18.944c6.656 6.6048 13.4656 11.6224 23.6544 11.6224 10.0352 0 16.0768-4.864 16.0768-13.824 0-9.6256-5.888-13.056-14.848-13.056H132.096v-21.2992h13.056c8.6016 0 15.2064-4.2496 15.2064-12.288 0-9.728-8.192-14.1824-15.7184-14.1824-6.8096 0-14.6944 4.096-20.992 10.752z" p-id="27313"></path></svg>