<?xml version="1.0" standalone="no"?><!DOCTYPE svg PUBLIC "-//W3C//DTD SVG 1.1//EN" "http://www.w3.org/Graphics/SVG/1.1/DTD/svg11.dtd"><svg t="1676401897416" class="icon" viewBox="0 0 1024 1024" version="1.1" xmlns="http://www.w3.org/2000/svg" p-id="10039" xmlns:xlink="http://www.w3.org/1999/xlink" width="200" height="200"><path d="M160 192h704a32 32 0 0 0 0-64h-704a32 32 0 0 0 0 64zM288 256a32 32 0 0 0 0 64h448a32 32 0 0 0 0-64h-448zM864 384h-704a32 32 0 0 0 0 64h704a32 32 0 0 0 0-64zM736 576a32 32 0 0 0 0-64h-448a32 32 0 0 0 0 64h448zM864 640h-704a32 32 0 0 0 0 64h704a32 32 0 0 0 0-64zM736 768h-448a32 32 0 0 0 0 64h448a32 32 0 0 0 0-64z" fill="#231815" p-id="10040"></path></svg>