<?xml version="1.0" standalone="no"?><!DOCTYPE svg PUBLIC "-//W3C//DTD SVG 1.1//EN" "http://www.w3.org/Graphics/SVG/1.1/DTD/svg11.dtd"><svg t="1676401778593" class="icon" viewBox="0 0 1024 1024" version="1.1" xmlns="http://www.w3.org/2000/svg" p-id="9526" xmlns:xlink="http://www.w3.org/1999/xlink" width="200" height="200"><path d="M160 192h704a32 32 0 0 0 0-64h-704a32 32 0 0 0 0 64zM160 320h448a32 32 0 0 0 0-64h-448a32 32 0 0 0 0 64zM864 384h-704a32 32 0 0 0 0 64h704a32 32 0 0 0 0-64zM160 576h448a32 32 0 0 0 0-64h-448a32 32 0 0 0 0 64zM864 640h-704a32 32 0 0 0 0 64h704a32 32 0 0 0 0-64zM608 768h-448a32 32 0 0 0 0 64h448a32 32 0 0 0 0-64z" fill="#231815" p-id="9527"></path></svg>